<?xml version="1.0" encoding="UTF-8" standalone="no" ?>
<!DOCTYPE svg PUBLIC "-//W3C//DTD SVG 1.1//EN" "http://www.w3.org/Graphics/SVG/1.1/DTD/svg11.dtd">
<svg xmlns="http://www.w3.org/2000/svg" xmlns:xlink="http://www.w3.org/1999/xlink" version="1.1" width="1080" height="1080" viewBox="0 0 1080 1080" xml:space="preserve">
<desc>Created with Fabric.js 5.2.4</desc>
<defs>
</defs>
<g transform="matrix(1 0 0 1 540 540)" id="62aa42b4-101f-4032-af1b-f8bc90a15ec1"  >
<rect style="stroke: none; stroke-width: 1; stroke-dasharray: none; stroke-linecap: butt; stroke-dashoffset: 0; stroke-linejoin: miter; stroke-miterlimit: 4; fill: rgb(255,255,255); fill-rule: nonzero; opacity: 1; visibility: hidden;" vector-effect="non-scaling-stroke"  x="-540" y="-540" rx="0" ry="0" width="1080" height="1080" />
</g>
<g transform="matrix(1 0 0 1 540 540)" id="c21146bf-a42f-435c-bc58-d5a7a172275a"  >
</g>
<g transform="matrix(3.6 0 0 3.6 540 540)"  >
<g style=""   >
		<g transform="matrix(1 0 0 1 0.56 -10.77)"  >
<path style="stroke: rgb(155,155,155); stroke-width: 1; stroke-dasharray: none; stroke-linecap: butt; stroke-dashoffset: 0; stroke-linejoin: miter; stroke-miterlimit: 4; fill: none; fill-rule: nonzero; opacity: 1;" vector-effect="non-scaling-stroke"  transform=" translate(-150.56, -65.73)" d="M 55.5561798 83.6335178 L 82.7174952 83.7716499 C 85.1938121 83.7842435 87.1946103 85.7952428 87.1946103 88.2715917 L 87.1946103 130.960674 L 172.410017 130.960674 L 172.519072 64.6597133 C 172.523144 62.1838722 174.526462 60.1763765 177.00229 60.1671464 L 245.567416 59.9115285 L 245.567416 5 C 245.567416 2.51471863 243.552697 0.5 241.067416 0.5 L 60.0561798 0.5 C 57.5708984 0.5 55.5561798 2.51471863 55.5561798 5 C 55.5561798 13.3216841 55.5561798 13.3216841 55.5561798 21.6433682 C 55.5561798 29.9650522 55.5561798 29.9650522 55.5561798 38.2867363 C 55.5561798 49.2374314 55.5561798 49.2374314 55.5561798 60.5964194 C 55.5561798 71.9971276 55.5561798 72.1572724 55.5561798 83.6335178 Z" stroke-linecap="round" />
</g>
		<g transform="matrix(1 0 0 1 -16.85 61.7)"  >
<path style="stroke: rgb(155,155,155); stroke-width: 1; stroke-dasharray: none; stroke-linecap: square; stroke-dashoffset: 0; stroke-linejoin: miter; stroke-miterlimit: 4; fill: none; fill-rule: nonzero; opacity: 1;" vector-effect="non-scaling-stroke"  transform=" translate(-133.15, -138.2)" d="M 94.3820225 138.202247 L 171.910112 138.202247" stroke-linecap="round" />
</g>
		<g transform="matrix(1 0 0 1 82.58 72.94)"  >
<rect style="stroke: rgb(151,151,151); stroke-width: 1; stroke-dasharray: none; stroke-linecap: butt; stroke-dashoffset: 0; stroke-linejoin: miter; stroke-miterlimit: 4; fill: none; fill-rule: nonzero; opacity: 1;" vector-effect="non-scaling-stroke"  x="-66.9157305" y="-2.870786515" rx="2" ry="2" width="133.831461" height="5.74157303" />
</g>
		<g transform="matrix(1 0 0 1 82.58 24.62)"  >
<path style="stroke: rgb(155,155,155); stroke-width: 1; stroke-dasharray: none; stroke-linecap: butt; stroke-dashoffset: 0; stroke-linejoin: miter; stroke-miterlimit: 4; fill: none; fill-rule: nonzero; opacity: 1;" vector-effect="non-scaling-stroke"  transform=" translate(-232.58, -101.12)" d="M 176.910112 60.0505618 C 174.424831 60.0505618 172.410112 62.0652804 172.410112 64.5505618 C 172.410112 69.3544475 172.410112 69.3544475 172.410112 74.1583331 C 172.410112 78.9622188 172.410112 78.9622188 172.410112 83.7661044 C 172.410112 97.4891474 172.410112 97.4891474 172.410112 111.21219 L 172.410112 137.696629 C 172.410112 140.181911 174.424831 142.196629 176.910112 142.196629 L 288.258427 142.196629 C 290.743708 142.196629 292.758427 140.181911 292.758427 137.696629 L 292.758427 64.5505618 C 292.758427 62.0652804 290.743708 60.0505618 288.258427 60.0505618 L 176.910112 60.0505618 Z" stroke-linecap="round" />
</g>
		<g transform="matrix(1 0 0 1 -87.64 41.48)"  >
<path style="stroke: rgb(155,155,155); stroke-width: 1; stroke-dasharray: none; stroke-linecap: butt; stroke-dashoffset: 0; stroke-linejoin: miter; stroke-miterlimit: 4; fill: none; fill-rule: nonzero; opacity: 1;" vector-effect="non-scaling-stroke"  transform=" translate(-62.36, -117.98)" d="M 42.0786517 83.6460674 C 39.5933703 83.6460674 37.5786517 85.660786 37.5786517 88.1460674 C 37.5786517 95.7904164 37.5786517 95.7904164 37.5786517 103.434765 C 37.5786517 114.93245 37.5786517 114.93245 37.5786517 126.430135 L 37.5786517 147.808989 C 37.5786517 150.29427 39.5933703 152.308989 42.0786517 152.308989 L 82.6404494 152.308989 C 85.1257308 152.308989 87.1404494 150.29427 87.1404494 147.808989 L 87.1404494 88.1460674 C 87.1404494 85.660786 85.1257308 83.6460674 82.6404494 83.6460674 L 42.0786517 83.6460674 Z" stroke-linecap="round" />
</g>
		<g transform="matrix(1 0 0 1 -136.52 49.9)"  >
<path style="stroke: rgb(155,155,155); stroke-width: 1; stroke-dasharray: none; stroke-linecap: butt; stroke-dashoffset: 0; stroke-linejoin: miter; stroke-miterlimit: 4; fill: none; fill-rule: nonzero; opacity: 1;" vector-effect="non-scaling-stroke"  transform=" translate(-13.48, -126.4)" d="M 5 100.5 C 2.51471863 100.5 0.5 102.514719 0.5 105 C 0.5 110.190071 0.5 110.190071 0.5 115.380142 C 0.5 119.738135 0.5 119.738135 0.5 124.096129 C 0.5 128.454122 0.5 128.454122 0.5 132.812115 L 0.5 147.808989 C 0.5 150.29427 2.51471863 152.308989 5 152.308989 L 21.9662921 152.308989 C 24.4515735 152.308989 26.4662921 150.29427 26.4662921 147.808989 L 26.4662921 105 C 26.4662921 102.514719 24.4515735 100.5 21.9662921 100.5 L 5 100.5 Z" stroke-linecap="round" />
</g>
</g>
</g>
</svg>