<?xml version="1.0" encoding="UTF-8" standalone="no" ?>
<!DOCTYPE svg PUBLIC "-//W3C//DTD SVG 1.1//EN" "http://www.w3.org/Graphics/SVG/1.1/DTD/svg11.dtd">
<svg xmlns="http://www.w3.org/2000/svg" xmlns:xlink="http://www.w3.org/1999/xlink" version="1.1" width="1080" height="1080" viewBox="0 0 1080 1080" xml:space="preserve">
<desc>Created with Fabric.js 5.2.4</desc>
<defs>
</defs>
<g transform="matrix(1 0 0 1 540 540)" id="747c5241-fdb5-4a40-b527-ce49e074197b"  >
<rect style="stroke: none; stroke-width: 1; stroke-dasharray: none; stroke-linecap: butt; stroke-dashoffset: 0; stroke-linejoin: miter; stroke-miterlimit: 4; fill: rgb(255,255,255); fill-rule: nonzero; opacity: 1; visibility: hidden;" vector-effect="non-scaling-stroke"  x="-540" y="-540" rx="0" ry="0" width="1080" height="1080" />
</g>
<g transform="matrix(1 0 0 1 540 540)" id="2863b9d8-15e4-44b0-80da-ffd91a382cd3"  >
</g>
<g transform="matrix(6.75 0 0 6.75 540 540)"  >
<g style=""   >
		<g transform="matrix(1 0 0 1 -23.84 1.11)"  >
<path style="stroke: none; stroke-width: 1; stroke-dasharray: none; stroke-linecap: butt; stroke-dashoffset: 0; stroke-linejoin: miter; stroke-miterlimit: 4; fill: rgb(255,255,255); fill-rule: nonzero; opacity: 1;" vector-effect="non-scaling-stroke"  transform=" translate(-56.16, -12.11)" d="M 58.2177 21.1555 L 54.1108 21.1555 L 54.1108 6.58787 L 48.7992 6.58787 L 48.7992 3.06799 L 63.5293 3.06799 L 63.5293 6.58787 L 58.2177 6.58787 L 58.2177 21.1555 Z" stroke-linecap="round" />
</g>
		<g transform="matrix(1 0 0 1 -2.12 1.11)"  >
<path style="stroke: none; stroke-width: 1; stroke-dasharray: none; stroke-linecap: butt; stroke-dashoffset: 0; stroke-linejoin: miter; stroke-miterlimit: 4; fill: rgb(255,255,255); fill-rule: nonzero; opacity: 1;" vector-effect="non-scaling-stroke"  transform=" translate(-77.88, -12.11)" d="M 75.819 21.1553 L 79.9501 21.1553 L 79.9501 3.06799 L 75.819 3.06799 L 75.819 21.1553 Z" stroke-linecap="round" />
</g>
		<g transform="matrix(1 0 0 1 74.36 1.11)"  >
<path style="stroke: none; stroke-width: 1; stroke-dasharray: none; stroke-linecap: butt; stroke-dashoffset: 0; stroke-linejoin: miter; stroke-miterlimit: 4; fill: rgb(255,255,255); fill-rule: nonzero; opacity: 1;" vector-effect="non-scaling-stroke"  transform=" translate(-154.36, -12.11)" d="M 152.855 17.5861 L 160 17.5861 L 160 21.1555 L 148.724 21.1555 L 148.724 3.06799 L 152.855 3.06799 L 152.855 17.5861 Z" stroke-linecap="round" />
</g>
		<g transform="matrix(1 0 0 1 21.97 1.11)"  >
<path style="stroke: none; stroke-width: 1; stroke-dasharray: none; stroke-linecap: butt; stroke-dashoffset: 0; stroke-linejoin: miter; stroke-miterlimit: 4; fill: rgb(255,255,255); fill-rule: nonzero; opacity: 1;" vector-effect="non-scaling-stroke"  transform=" translate(-101.97, -12.11)" d="M 97.7115 17.6108 L 100.273 17.6108 C 103.72 17.6108 106.018 15.4605 106.018 12.0382 C 106.018 8.78718 103.696 6.58813 100.371 6.58813 L 97.7115 6.58813 L 97.7115 17.6108 Z M 93.7028 3.06799 L 100.395 3.06799 C 105.333 3.06799 110.247 5.68264 110.247 12.0626 C 110.247 18.0761 105.431 21.1551 100.64 21.1551 L 93.7028 21.1553 L 93.7028 3.06799 Z" stroke-linecap="round" />
</g>
		<g transform="matrix(1 0 0 1 48.09 1.11)"  >
<path style="stroke: none; stroke-width: 1; stroke-dasharray: none; stroke-linecap: butt; stroke-dashoffset: 0; stroke-linejoin: miter; stroke-miterlimit: 4; fill: rgb(255,255,255); fill-rule: nonzero; opacity: 1;" vector-effect="non-scaling-stroke"  transform=" translate(-128.09, -12.11)" d="M 125.334 14.375 L 128.058 7.30083 L 130.757 14.375 L 125.334 14.375 Z M 133.175 21.1555 L 137.715 21.1555 L 130.264 3.06799 L 125.999 3.06799 L 118.475 21.1555 L 122.894 21.1555 L 124.227 17.5865 L 131.853 17.5865 L 133.175 21.1555 Z" stroke-linecap="round" />
</g>
		<g transform="matrix(1 0 0 1 -64.12 -5.29)"  >
<path style="stroke: none; stroke-width: 1; stroke-dasharray: none; stroke-linecap: butt; stroke-dashoffset: 0; stroke-linejoin: miter; stroke-miterlimit: 4; fill: rgb(255,255,255); fill-rule: nonzero; opacity: 1;" vector-effect="non-scaling-stroke"  transform=" translate(-15.88, -5.71)" d="M 21.1775 5.70464 L 15.8834 10.9992 L 10.589 5.70464 L 15.8834 0.411743 L 21.1775 5.70464 Z" stroke-linecap="round" />
</g>
		<g transform="matrix(1 0 0 1 -64.12 5.29)"  >
<path style="stroke: none; stroke-width: 1; stroke-dasharray: none; stroke-linecap: butt; stroke-dashoffset: 0; stroke-linejoin: miter; stroke-miterlimit: 4; fill: rgb(255,255,255); fill-rule: nonzero; opacity: 1;" vector-effect="non-scaling-stroke"  transform=" translate(-15.88, -16.29)" d="M 21.1775 16.2936 L 15.8834 21.5882 L 10.589 16.2936 L 15.8834 10.9993 L 21.1775 16.2936 Z" stroke-linecap="round" />
</g>
		<g transform="matrix(1 0 0 1 -74.71 -5.29)"  >
<path style="stroke: none; stroke-width: 1; stroke-dasharray: none; stroke-linecap: butt; stroke-dashoffset: 0; stroke-linejoin: miter; stroke-miterlimit: 4; fill: rgb(255,255,255); fill-rule: nonzero; opacity: 1;" vector-effect="non-scaling-stroke"  transform=" translate(-5.29, -5.71)" d="M 10.5886 5.70506 L 5.29417 10.9997 L 0 5.70506 L 5.29417 0.411743 L 10.5886 5.70506 Z" stroke-linecap="round" />
</g>
		<g transform="matrix(1 0 0 1 -53.53 -5.29)"  >
<path style="stroke: none; stroke-width: 1; stroke-dasharray: none; stroke-linecap: butt; stroke-dashoffset: 0; stroke-linejoin: miter; stroke-miterlimit: 4; fill: rgb(255,255,255); fill-rule: nonzero; opacity: 1;" vector-effect="non-scaling-stroke"  transform=" translate(-26.47, -5.71)" d="M 31.7655 5.70506 L 26.4715 10.9997 L 21.1769 5.70506 L 26.4715 0.411743 L 31.7655 5.70506 Z" stroke-linecap="round" />
</g>
</g>
</g>
</svg>